# xmcd
#
# Track frame offsets: 
#        151
#        17173
#        35003
#        48243
#        58986
#        70763
#        83363
#        99156
#        112089
#        127878
#        142287
#
# Disc length: 2174 seconds
#
# Revision: 0
# Processed by: cddbd v1.5PL3 Copyright (c) Steve Scherf et al.
# Submitted via: ExactAudioCopy v0.95a4
#
DISCID=94087c0b
DTITLE=John Trudell - Children Of Earth - Childs Voice
DYEAR=1992
DGENRE=Native American
TTITLE0=Children Of Earth
TTITLE1=Last Rush In Babylon
TTITLE2=See The Woman
TTITLE3=Questions
TTITLE4=Good Thoughts
TTITLE5=One Of The Colors
TTITLE6=Material Junkies
TTITLE7=Some People Say
TTITLE8=One Journey
TTITLE9=Child Of The Dream
TTITLE10=Peace With Earth
EXTD=
EXTT0=
EXTT1=
EXTT2=
EXTT3=
EXTT4=
EXTT5=
EXTT6=
EXTT7=
EXTT8=
EXTT9=
EXTT10=
PLAYORDER=
